<?xml version="1.0" standalone="no"?>
<!DOCTYPE svg PUBLIC "-//W3C//DTD SVG 20010904//EN"
 "http://www.w3.org/TR/2001/REC-SVG-20010904/DTD/svg10.dtd">
<svg version="1.0" xmlns="http://www.w3.org/2000/svg"
 width="512.000000pt" height="512.000000pt" viewBox="0 0 512.000000 512.000000"
 preserveAspectRatio="xMidYMid meet">
<metadata>
Created by potrace 1.14, written by Peter Selinger 2001-2017
</metadata>
<g transform="translate(0.000000,512.000000) scale(0.100000,-0.100000)"
fill="#000000" stroke="none">
<path d="M2899 4906 c-14 -9 -33 -26 -42 -39 -35 -53 -44 -271 -16 -369 11
-39 47 -78 71 -78 11 0 23 -12 30 -27 21 -50 38 -63 83 -63 43 0 73 20 60 39
-3 6 -19 8 -34 5 -23 -5 -32 -2 -40 15 -10 18 -7 27 19 60 39 48 55 139 47
273 -6 99 -21 153 -50 177 -25 20 -97 24 -128 7z m98 -73 c15 -22 18 -49 18
-153 0 -144 -6 -174 -40 -196 -23 -15 -27 -15 -50 0 -32 21 -38 58 -34 210 3
105 7 127 23 145 27 29 62 27 83 -6z"/>
<path d="M1512 4668 l3 -243 25 0 c25 0 25 1 28 98 l3 97 27 0 c40 0 91 36
108 75 31 75 9 186 -41 205 -15 6 -55 10 -91 10 l-64 0 2 -242z m112 190 c64
-29 34 -199 -33 -186 -13 3 -17 20 -19 87 -4 115 0 123 52 99z"/>
<path d="M1770 4665 l0 -245 85 0 c84 0 85 0 85 25 0 22 -4 24 -57 27 l-58 3
-3 89 c-3 101 0 106 66 106 35 0 42 3 42 19 0 17 -8 20 -52 23 l-53 3 -3 73
-3 72 54 0 c52 0 77 12 77 37 0 10 -23 13 -90 13 l-90 0 0 -245z"/>
<path d="M1967 4896 c-8 -21 14 -36 55 -36 l38 0 2 -217 3 -218 25 0 25 0 3
217 2 217 48 3 c40 3 47 6 50 26 3 22 2 22 -121 22 -97 0 -126 -3 -130 -14z"/>
<path d="M2302 4868 c-5 -24 -33 -132 -61 -241 -28 -109 -51 -200 -51 -203 0
-3 12 -4 27 -2 25 3 30 10 42 58 8 30 19 58 25 62 18 12 101 9 114 -4 7 -7 12
-19 12 -27 0 -9 5 -33 11 -53 8 -31 15 -38 34 -38 36 0 36 -5 -25 225 -18 66
-36 138 -41 160 -21 88 -30 105 -54 105 -19 0 -25 -7 -33 -42z m58 -148 c7
-36 14 -77 17 -92 5 -27 4 -28 -42 -28 -39 0 -46 3 -42 18 3 9 13 54 23 100
10 45 21 79 25 75 4 -5 12 -37 19 -73z"/>
<path d="M2520 4665 l0 -245 25 0 c35 0 39 27 31 197 -3 78 -2 143 2 143 4 0
20 -36 36 -79 15 -44 44 -119 65 -168 32 -76 40 -88 62 -88 l24 0 3 243 2 242
-25 0 -25 0 0 -168 c0 -93 -3 -172 -6 -175 -4 -4 -21 36 -39 88 -18 53 -48
131 -66 175 -31 72 -37 80 -61 80 l-28 0 0 -245z"/>
<path d="M3137 4903 c-10 -10 -8 -352 3 -398 14 -62 48 -85 125 -85 35 0 76 5
90 12 l25 11 0 234 0 233 -30 0 -30 0 -2 -217 -3 -218 -50 0 c-72 0 -75 9 -75
243 l0 192 -23 0 c-13 0 -27 -3 -30 -7z"/>
<path d="M3434 4897 c-2 -7 -3 -116 -2 -242 l3 -230 88 -3 87 -3 0 26 c0 24
-2 25 -60 25 l-61 0 3 98 3 97 53 3 c43 3 52 6 52 22 0 16 -9 19 -52 22 l-53
3 -3 72 -3 72 58 3 c51 3 58 6 61 26 3 21 1 22 -83 22 -60 0 -87 -4 -91 -13z"/>
<path d="M2426 4061 c-3 -4 -27 -11 -53 -14 -26 -3 -82 -17 -123 -31 -59 -20
-83 -34 -111 -66 -39 -46 -80 -120 -106 -195 -21 -62 -24 -241 -4 -300 64
-195 214 -342 396 -390 103 -26 119 -23 166 40 80 106 217 189 362 219 96 20
150 20 240 0 152 -34 281 -115 363 -227 25 -34 50 -63 55 -65 5 -2 9 28 9 67
0 41 -4 71 -10 71 -5 0 -10 9 -10 20 0 10 -6 43 -14 73 -66 251 -202 454 -408
605 -112 82 -307 165 -421 179 -26 3 -50 10 -53 14 -3 5 -65 9 -139 9 -74 0
-136 -4 -139 -9z"/>
<path d="M1960 3873 c-77 -51 -207 -185 -263 -269 -124 -189 -180 -370 -181
-584 0 -218 56 -405 181 -594 57 -85 202 -232 240 -243 16 -5 73 -8 128 -8
164 1 292 58 403 180 127 138 174 336 123 517 -28 102 -39 114 -110 122 -212
24 -413 185 -491 392 -61 163 -50 315 37 512 9 20 -10 14 -67 -25z"/>
<path d="M2951 3264 c-103 -23 -187 -70 -270 -152 -83 -83 -83 -83 -41 -197
32 -86 39 -243 15 -333 -68 -255 -263 -431 -517 -465 -43 -6 -78 -14 -78 -17
0 -7 105 -56 165 -78 50 -18 151 -42 179 -42 14 0 26 -4 26 -10 0 -6 50 -10
129 -10 76 0 132 4 136 10 3 6 17 10 30 10 13 0 52 7 87 16 376 93 672 385
769 759 27 101 24 128 -20 220 -70 143 -209 251 -374 289 -81 19 -149 19 -236
0z"/>
<path d="M1070 1502 c0 -4 -10 -12 -22 -17 l-23 -10 -3 -627 -2 -628 152 0
c140 0 157 2 204 24 101 47 155 129 198 301 17 69 38 358 32 431 -3 27 -8 83
-11 124 -21 249 -130 390 -302 390 -24 0 -43 5 -43 10 0 6 -37 10 -90 10 -49
0 -90 -3 -90 -8z m273 -166 c38 -26 67 -95 83 -199 28 -184 10 -519 -35 -652
-13 -40 -32 -71 -55 -93 -33 -29 -41 -32 -101 -32 l-65 0 0 493 c0 272 3 497
8 501 13 14 137 0 165 -18z"/>
<path d="M1760 1500 c0 -5 -7 -10 -15 -10 -13 0 -15 -77 -15 -635 l0 -636 68
3 67 3 3 252 2 251 48 4 c26 3 52 0 59 -5 45 -34 115 -227 133 -369 18 -140
16 -136 51 -143 42 -9 116 3 122 20 10 25 -21 219 -49 300 -29 87 -53 139 -92
197 l-25 38 47 47 c80 78 106 157 106 319 0 121 -14 181 -59 249 -36 54 -122
97 -204 103 -34 2 -66 8 -71 13 -14 13 -176 12 -176 -1z m287 -156 c47 -30 58
-69 58 -209 0 -112 -3 -137 -22 -177 -29 -64 -62 -83 -143 -83 l-65 0 -3 239
c-2 185 1 242 10 248 18 13 139 0 165 -18z"/>
<path d="M2679 1492 c-9 -9 -30 -71 -47 -137 -16 -66 -48 -190 -71 -275 -22
-85 -58 -227 -81 -315 -23 -88 -57 -221 -77 -295 -58 -225 -61 -240 -50 -247
17 -10 125 -9 135 2 6 6 24 73 42 150 17 77 34 146 36 153 2 9 44 12 162 12
l159 0 31 -127 c17 -71 33 -142 37 -160 5 -27 12 -32 44 -38 21 -3 55 -3 75 0
31 6 39 14 38 35 0 6 -72 282 -103 398 -11 41 -37 143 -59 226 -21 83 -48 185
-59 226 -10 41 -35 136 -55 210 -53 206 -50 200 -99 199 -26 0 -48 -7 -58 -17z
m72 -343 c27 -145 34 -179 63 -299 14 -58 27 -121 28 -140 l3 -35 -113 -3
c-97 -2 -113 0 -119 14 -3 9 11 89 32 178 41 172 61 272 71 349 4 26 9 46 11
43 2 -2 13 -50 24 -107z"/>
<path d="M3090 1500 c0 -5 -7 -10 -15 -10 -19 0 -20 -48 -1 -143 8 -40 19 -97
25 -127 9 -47 61 -320 106 -555 64 -335 74 -375 92 -414 l18 -36 84 0 84 0 33
170 c19 94 43 215 54 270 10 55 27 159 36 230 9 72 19 153 23 180 l7 50 13
-90 c43 -295 50 -333 95 -530 8 -33 21 -93 30 -132 32 -148 53 -169 158 -157
48 6 59 10 63 28 2 11 14 73 25 136 12 63 25 138 31 165 5 28 23 124 39 215
17 91 35 185 40 210 5 25 19 97 30 160 11 63 25 135 30 160 5 25 14 75 21 113
6 37 15 67 20 67 5 0 9 11 9 25 0 24 -2 25 -65 25 -36 0 -65 -4 -65 -9 0 -5
-9 -11 -19 -14 -14 -3 -22 -17 -26 -43 -4 -22 -13 -75 -21 -119 -86 -481 -119
-694 -130 -838 -4 -54 -10 -99 -13 -102 -4 -2 -15 62 -25 143 -10 81 -22 165
-26 187 -5 22 -36 182 -70 355 -33 173 -63 325 -66 338 -4 21 -9 23 -71 20
l-67 -3 -13 -55 c-6 -30 -33 -170 -58 -310 -25 -140 -50 -275 -55 -300 -15
-70 -40 -283 -40 -337 -1 -78 -19 -29 -30 84 -11 101 -21 172 -45 303 -7 41
-21 116 -30 165 -9 50 -20 110 -25 135 -5 25 -19 97 -30 160 -30 166 -41 213
-56 227 -15 15 -104 18 -104 3z"/>
</g>
</svg>
